<?xml version="1.0" encoding="utf-8"?>
<!-- Generator: Adobe Illustrator 16.0.4, SVG Export Plug-In . SVG Version: 6.00 Build 0)  -->
<!DOCTYPE svg PUBLIC "-//W3C//DTD SVG 1.1//EN" "http://www.w3.org/Graphics/SVG/1.1/DTD/svg11.dtd">
<svg version="1.1" id="Layer_1" xmlns="http://www.w3.org/2000/svg" xmlns:xlink="http://www.w3.org/1999/xlink" x="0px" y="0px"
	 width="612px" height="612px" viewBox="240 330 130 130" enable-background="new 0 0 612 792" xml:space="preserve">
<path fill="#C9252C" d="M306.429,334.119c-33.924,0-61.522,27.6-61.522,61.522s27.599,61.521,61.522,61.521
	c33.923,0,61.521-27.599,61.521-61.521S340.352,334.119,306.429,334.119z M254.906,395.642c0-28.409,23.113-51.522,51.522-51.522
	c11.902,0,22.865,4.068,31.598,10.871l-36.366,36.367c-1.002-1.411-2.037-2.924-3.113-4.554
	c-10.533-15.969-20.723-25.843-20.723-25.843s-2.168-0.371-5.746,3.359c-2.126,2.219-6.64,8.318-3.389,20.945
	c2.656,10.32,4.531,27.865,5.128,33.934l-8.04,8.04C258.975,418.507,254.906,407.544,254.906,395.642z M293.197,399.819
	l-12.988,12.988l0.014-21.224C280.223,391.584,281.46,388.057,293.197,399.819z M306.429,447.163
	c-12.912,0-24.721-4.785-33.772-12.661l27.221-27.22c5.716,7.062,10.821,14.541,14.627,15.347
	c9.287,1.965,27.625-0.363,33.316-2.896c1.937-0.86,2.628-1.775,1.045-2.931c-3.206-2.34-11.51-5.674-18.355-9.46
	c-1.078-0.218-2.225,0.678-7.297,0.678c-4.825,0-9.514-2.308-15.319-8.755l37.396-37.396c7.876,9.051,12.661,20.859,12.661,33.771
	C357.95,424.051,334.838,447.163,306.429,447.163z"/>
</svg>
